<?xml version="1.0" encoding="UTF-8"?>
<svg xmlns="http://www.w3.org/2000/svg" xmlns:xlink="http://www.w3.org/1999/xlink" stroke-dasharray="none" shape-rendering="auto" font-family="'Dialog'" width="791" text-rendering="auto" fill-opacity="1" contentScriptType="text/ecmascript" color-interpolation="auto" color-rendering="auto" preserveAspectRatio="xMidYMid meet" font-size="12" viewBox="0 0 791 250" fill="black" stroke="black" image-rendering="auto" stroke-miterlimit="10" zoomAndPan="magnify" version="1.0" stroke-linecap="square" stroke-linejoin="miter" contentStyleType="text/css" font-style="normal" height="250" stroke-width="1" stroke-dashoffset="0" font-weight="normal" stroke-opacity="1">
  <!--Generated by the Batik Graphics2D SVG Generator-->
  <defs id="genericDefs" />
  <g>
    <defs id="defs1">
      <clipPath clipPathUnits="userSpaceOnUse" id="clipPath1">
        <path d="M9 9 L81 9 L81 41 L9 41 L9 9 Z" />
      </clipPath>
      <clipPath clipPathUnits="userSpaceOnUse" id="clipPath2">
        <path d="M9 9 L86 9 L86 41 L9 41 L9 9 Z" />
      </clipPath>
      <clipPath clipPathUnits="userSpaceOnUse" id="clipPath3">
        <path d="M39 39 L51 39 L51 241 L39 241 L39 39 Z" />
      </clipPath>
      <clipPath clipPathUnits="userSpaceOnUse" id="clipPath4">
        <path d="M338 9 L490 9 L490 61 L338 61 L338 9 Z" />
      </clipPath>
      <clipPath clipPathUnits="userSpaceOnUse" id="clipPath5">
        <path d="M338 9 L494 9 L494 61 L338 61 L338 9 Z" />
      </clipPath>
      <clipPath clipPathUnits="userSpaceOnUse" id="clipPath6">
        <path d="M408 59 L420 59 L420 241 L408 241 L408 59 Z" />
      </clipPath>
      <clipPath clipPathUnits="userSpaceOnUse" id="clipPath7">
        <path d="M403 89 L425 89 L425 131 L403 131 L403 89 Z" />
      </clipPath>
      <clipPath clipPathUnits="userSpaceOnUse" id="clipPath8">
        <path d="M424 89 L462 89 L462 117 L424 117 L424 89 Z" />
      </clipPath>
      <clipPath clipPathUnits="userSpaceOnUse" id="clipPath9">
        <path d="M563 9 L782 9 L782 61 L563 61 L563 9 Z" />
      </clipPath>
      <clipPath clipPathUnits="userSpaceOnUse" id="clipPath10">
        <path d="M563 9 L786 9 L786 61 L563 61 L563 9 Z" />
      </clipPath>
      <clipPath clipPathUnits="userSpaceOnUse" id="clipPath11">
        <path d="M666 59 L678 59 L678 241 L666 241 L666 59 Z" />
      </clipPath>
      <clipPath clipPathUnits="userSpaceOnUse" id="clipPath12">
        <path d="M661 149 L683 149 L683 191 L661 191 L661 149 Z" />
      </clipPath>
      <clipPath clipPathUnits="userSpaceOnUse" id="clipPath13">
        <path d="M682 149 L727 149 L727 177 L682 177 L682 149 Z" />
      </clipPath>
      <clipPath clipPathUnits="userSpaceOnUse" id="clipPath14">
        <path d="M-1 -1 L792 -1 L792 251 L-1 251 L-1 -1 Z" />
      </clipPath>
      <clipPath clipPathUnits="userSpaceOnUse" id="clipPath15">
        <path d="M79 66 L374 66 L374 94 L79 94 L79 66 Z" />
      </clipPath>
      <clipPath clipPathUnits="userSpaceOnUse" id="clipPath16">
        <path d="M43 85 L55 85 L55 96 L43 96 L43 85 Z" />
      </clipPath>
      <clipPath clipPathUnits="userSpaceOnUse" id="clipPath17">
        <path d="M114 126 L597 126 L597 154 L114 154 L114 126 Z" />
      </clipPath>
      <clipPath clipPathUnits="userSpaceOnUse" id="clipPath18">
        <path d="M653 145 L665 145 L665 156 L653 156 L653 145 Z" />
      </clipPath>
    </defs>
    <g fill="rgb(238,201,142)" font-family="'Noto Sans'" stroke-linejoin="round" stroke="rgb(238,201,142)" stroke-width="0" stroke-miterlimit="0">
      <rect x="10" y="10" clip-path="url(#clipPath1)" width="70" height="30" stroke="none" />
    </g>
    <g stroke-width="0.1" font-family="'Noto Sans'" stroke-linecap="butt">
      <rect x="10" y="10" clip-path="url(#clipPath1)" fill="none" width="69" height="29" />
      <text x="12" font-size="19" y="33" clip-path="url(#clipPath2)" stroke="none" xml:space="preserve">System</text>
      <line clip-path="url(#clipPath3)" fill="none" x1="44" x2="44" y1="40" y2="240" stroke-dasharray="10,10" stroke-width="1.1" />
    </g>
    <g stroke-linecap="butt" fill="rgb(255,245,181)" font-family="'Noto Sans'" stroke-dasharray="10,10" stroke="rgb(255,245,181)" stroke-width="1.1">
      <rect x="339" y="10" clip-path="url(#clipPath4)" width="150" height="50" stroke="none" />
    </g>
    <g stroke-width="0.1" font-family="'Noto Sans'" stroke-linecap="butt">
      <rect x="339" y="10" clip-path="url(#clipPath4)" fill="none" width="149" height="49" />
      <text x="386" font-size="19" y="30" clip-path="url(#clipPath5)" stroke="none" xml:space="preserve">estani</text>
      <text x="340" font-size="19" y="56" clip-path="url(#clipPath5)" stroke="none" xml:space="preserve">: actCoordinator</text>
      <line clip-path="url(#clipPath6)" fill="none" x1="413" x2="413" y1="60" y2="240" stroke-dasharray="10,10" stroke-width="1.1" />
    </g>
    <g stroke-linecap="butt" fill="rgb(39,76,114)" font-family="'Noto Sans'" stroke-dasharray="10,10" stroke="rgb(39,76,114)" stroke-width="1.1">
      <rect x="404" y="90" clip-path="url(#clipPath7)" width="20" height="40" stroke="none" />
      <rect x="404" y="90" clip-path="url(#clipPath7)" fill="none" width="19" stroke-dasharray="none" height="39" stroke-width="0.1" />
    </g>
    <g stroke-width="0.1" font-size="19" font-family="'Noto Sans'" stroke-linecap="butt">
      <text xml:space="preserve" x="425" y="111" clip-path="url(#clipPath8)" stroke="none">out</text>
      <rect x="564" y="10" clip-path="url(#clipPath9)" fill="rgb(255,245,181)" width="217" height="50" stroke="none" />
      <rect x="564" y="10" clip-path="url(#clipPath9)" fill="none" width="216" height="49" />
      <text xml:space="preserve" x="625" y="30" clip-path="url(#clipPath10)" stroke="none">seccional2</text>
      <text xml:space="preserve" x="568" y="56" clip-path="url(#clipPath10)" stroke="none">: actPoliceHeadquarter</text>
      <line clip-path="url(#clipPath11)" fill="none" x1="671" x2="671" y1="60" y2="240" stroke-dasharray="10,10" stroke-width="1.1" />
    </g>
    <g stroke-linecap="butt" fill="rgb(194,239,255)" font-family="'Noto Sans'" stroke-dasharray="10,10" stroke="rgb(194,239,255)" stroke-width="1.1">
      <rect x="662" y="150" clip-path="url(#clipPath12)" width="20" height="40" stroke="none" />
      <rect x="662" y="150" clip-path="url(#clipPath12)" fill="none" width="19" stroke-dasharray="none" height="39" stroke-width="0.1" />
    </g>
    <g stroke-width="0.1" font-size="19" font-family="'Noto Sans'" stroke-linecap="butt">
      <text xml:space="preserve" x="683" y="171" clip-path="url(#clipPath13)" stroke="none">in01</text>
      <line clip-path="url(#clipPath14)" fill="none" x1="404" x2="45" y1="90" y2="90" stroke="rgb(136,136,136)" stroke-width="2.1" />
      <text x="80" y="88" clip-path="url(#clipPath15)" stroke="none" stroke-width="2.1" xml:space="preserve">oeSendPoliceReport(AdtReport)</text>
      <line clip-path="url(#clipPath16)" fill="none" x1="52" x2="45" y1="87" y2="90" stroke="rgb(136,136,136)" stroke-width="2.1" />
      <line clip-path="url(#clipPath16)" fill="none" x1="45" x2="52" y1="90" y2="93" stroke="rgb(136,136,136)" stroke-width="2.1" />
    </g>
    <g stroke-linecap="butt" font-size="19" fill="rgb(136,136,136)" font-family="'Noto Sans'" stroke-dasharray="5,5" stroke="rgb(136,136,136)" stroke-width="2.1">
      <line clip-path="url(#clipPath14)" fill="none" x1="662" x2="45" y1="150" y2="150" />
      <text x="115" y="148" clip-path="url(#clipPath17)" fill="black" stroke="none" xml:space="preserve">ieSendReport(1;-32.959286,-60.639937;intermediate)</text>
      <line clip-path="url(#clipPath18)" fill="none" x1="655" x2="662" y1="153" y2="150" stroke-dasharray="none" />
      <line clip-path="url(#clipPath18)" fill="none" x1="662" x2="655" y1="150" y2="147" stroke-dasharray="none" />
    </g>
  </g>
</svg>

